<svg width="80" height="72" viewBox="0 0 80 72" fill="none" xmlns="http://www.w3.org/2000/svg">
<g clip-path="url(#clip0_65_1094)">
<path d="M66.4755 14.0107H13.2584V71.1274H66.4755V14.0107Z" fill="url(#paint0_linear_65_1094)"/>
<path d="M13.0382 14.0107C13.1024 14.0107 13.1666 14.0383 13.2584 14.0658C13.2584 33.068 13.2584 52.0701 13.2584 71.0998C9.13864 71.421 5.66117 70.3841 2.89939 67.7233C0.945037 65.8332 -2.56868e-05 63.6127 -2.56868e-05 61.0987C-2.56868e-05 52.1986 -2.56868e-05 43.3077 -2.56868e-05 34.4076C-2.56868e-05 31.0127 -0.00920105 27.6178 -0.00920105 24.2229C-0.00920105 20.1215 2.20206 17.1395 6.26675 15.1209C8.35873 14.0933 10.6801 13.9373 13.0382 14.0107Z" fill="url(#paint1_linear_65_1094)"/>
<path d="M57.1809 14.0016C59.5573 14.0016 59.7958 14.0016 62.1631 14.0016C62.1631 33.068 62.1631 52.0701 62.1631 71.109C46.0053 71.109 33.7837 71.109 17.5708 71.109C17.5708 52.0793 17.5708 33.0771 17.5708 14.0199C19.9381 14.0199 20.4519 14.0199 22.865 14.0199C22.865 13.7813 22.865 13.5978 22.865 13.4235C22.865 11.3774 22.8742 9.32212 22.8558 7.27601C22.8375 5.84466 23.2228 4.59681 24.3422 3.62422C25.1313 2.94524 26.0397 2.59658 27.0673 2.59658C30.2512 2.5874 33.4259 2.5874 36.6097 2.5874C41.9589 2.5874 47.3174 2.59658 52.6666 2.5874C54.0704 2.5874 55.2357 3.04617 56.1532 4.11051C56.8873 4.96382 57.1625 5.96394 57.1625 7.08333C57.1533 9.23954 57.1625 11.3958 57.1625 13.552C57.1533 13.6712 57.1625 13.8089 57.1809 14.0016ZM28.6088 14.0016C28.829 14.0016 28.9942 14.0016 29.1593 14.0016C31.6917 14.0016 34.2333 14.0016 36.7657 14.0016C41.5002 14.0016 46.2438 14.0016 50.9783 14.0107C51.3545 14.0107 51.4371 13.8914 51.4371 13.5336C51.4187 11.9279 51.4371 10.3222 51.4371 8.71654C51.4371 8.58809 51.4187 8.45963 51.4004 8.322C43.7848 8.322 36.2152 8.322 28.6088 8.322C28.6088 10.2121 28.6088 12.0656 28.6088 14.0016Z" fill="white"/>
<mask id="mask0_65_1094" style="mask-type:alpha" maskUnits="userSpaceOnUse" x="17" y="2" width="46" height="70">
<path d="M57.1808 14.0016C59.5573 14.0016 59.7958 14.0016 62.1631 14.0016C62.1631 33.068 62.1631 52.0701 62.1631 71.109C46.0053 71.109 33.7837 71.109 17.5708 71.109C17.5708 52.0793 17.5708 33.0771 17.5708 14.0199C19.938 14.0199 20.4519 14.0199 22.865 14.0199C22.865 13.7813 22.865 13.5978 22.865 13.4235C22.865 11.3774 22.8742 9.32212 22.8558 7.27601C22.8375 5.84466 23.2228 4.59681 24.3422 3.62422C25.1313 2.94524 26.0397 2.59658 27.0673 2.59658C30.2512 2.5874 33.4258 2.5874 36.6097 2.5874C41.9589 2.5874 47.3173 2.59658 52.6666 2.5874C54.0704 2.5874 55.2357 3.04617 56.1532 4.11051C56.8872 4.96382 57.1625 5.96394 57.1625 7.08333C57.1533 9.23954 57.1625 11.3958 57.1625 13.552C57.1533 13.6712 57.1625 13.8089 57.1808 14.0016ZM28.6088 14.0016C28.829 14.0016 28.9941 14.0016 29.1593 14.0016C31.6917 14.0016 34.2333 14.0016 36.7657 14.0016C41.5002 14.0016 46.2438 14.0016 50.9783 14.0107C51.3545 14.0107 51.4371 13.8914 51.4371 13.5336C51.4187 11.9279 51.4371 10.3222 51.4371 8.71654C51.4371 8.58809 51.4187 8.45963 51.4004 8.322C43.7848 8.322 36.2151 8.322 28.6088 8.322C28.6088 10.2121 28.6088 12.0656 28.6088 14.0016Z" fill="#F7F9FC"/>
</mask>
<g mask="url(#mask0_65_1094)">
<path d="M58.096 0H21V14.02H58.096V0Z" fill="url(#paint2_linear_65_1094)"/>
</g>
<path d="M80 24.0763C80 20.2961 77.9356 17.4792 74.2654 15.4331C72.0083 14.1761 69.4483 13.9375 66.8242 13.9926C66.4205 14.0018 66.4755 14.2128 66.4755 14.433C66.4755 21.0393 66.4755 27.6364 66.4755 34.2426C66.4755 45.8495 66.4755 57.4471 66.4663 69.054C66.4663 69.7238 66.4663 70.3936 66.4663 71.1184C68.1179 71.1735 69.6869 71.1826 71.2284 70.8156C76.44 69.5861 79.9908 65.7049 79.9908 61.1264C80.0092 48.7856 80 36.4264 80 24.0763Z" fill="url(#paint3_linear_65_1094)"/>
<path d="M44.2161 46.7854C44.2161 47.969 44.2161 49.0884 44.2161 50.217C44.2161 51.4924 44.2161 52.7678 44.2161 54.034C44.2161 54.7955 43.8307 55.1992 43.0783 55.1992C41.0047 55.2084 38.9311 55.2084 36.8574 55.1992C36.1693 55.1992 35.7839 54.768 35.7839 54.0431C35.7839 51.7676 35.7839 49.4922 35.7839 47.2167C35.7839 47.0882 35.7839 46.9506 35.7839 46.7854C35.6096 46.7854 35.4811 46.7854 35.3435 46.7854C33.1047 46.7854 30.8567 46.7854 28.618 46.7854C27.7279 46.7854 27.3609 46.4276 27.3609 45.5376C27.3609 43.5649 27.3609 41.5922 27.3609 39.6195C27.3609 38.7203 27.7188 38.3624 28.6088 38.3624C30.8384 38.3624 33.068 38.3624 35.2976 38.3624C35.4444 38.3624 35.5821 38.3624 35.7747 38.3624C35.7747 38.2156 35.7747 38.0964 35.7747 37.9771C35.7747 35.7016 35.7747 33.4261 35.7747 31.1506C35.7747 30.3065 36.1509 29.9395 36.9951 29.9395C38.9678 29.9395 40.9405 29.9395 42.9132 29.9395C43.8399 29.9395 44.1977 30.2881 44.1977 31.2332C44.2069 33.4903 44.1977 35.7383 44.1977 37.9954C44.1977 38.1055 44.1977 38.2156 44.1977 38.3716C44.3445 38.3716 44.473 38.3716 44.5923 38.3716C46.8678 38.3716 49.1432 38.3716 51.4187 38.3808C52.2537 38.3808 52.6115 38.7478 52.6115 39.5828C52.6115 41.5646 52.6115 43.5465 52.6115 45.5284C52.6115 46.4368 52.2629 46.7854 51.3729 46.7854C49.1065 46.7854 46.8402 46.7854 44.5831 46.7946C44.4913 46.7854 44.3812 46.7854 44.2161 46.7854Z" fill="url(#paint4_linear_65_1094)"/>
</g>
<defs>
<linearGradient id="paint0_linear_65_1094" x1="13.2597" y1="42.5656" x2="66.473" y2="42.5656" gradientUnits="userSpaceOnUse">
<stop stop-color="#B0F4FF"/>
<stop offset="1" stop-color="#69DCFC"/>
</linearGradient>
<linearGradient id="paint1_linear_65_1094" x1="-2.56858e-05" y1="42.5746" x2="13.2597" y2="42.5746" gradientUnits="userSpaceOnUse">
<stop stop-color="#6CBCFC"/>
<stop offset="1" stop-color="#458DFC"/>
</linearGradient>
<linearGradient id="paint2_linear_65_1094" x1="20.9962" y1="7.00849" x2="58.0944" y2="7.00849" gradientUnits="userSpaceOnUse">
<stop stop-color="#6CBCFC"/>
<stop offset="1" stop-color="#458DFC"/>
</linearGradient>
<linearGradient id="paint3_linear_65_1094" x1="66.4686" y1="42.5692" x2="80.0007" y2="42.5692" gradientUnits="userSpaceOnUse">
<stop stop-color="#6CBCFC"/>
<stop offset="1" stop-color="#458DFC"/>
</linearGradient>
<linearGradient id="paint4_linear_65_1094" x1="27.3666" y1="42.5785" x2="52.6299" y2="42.5785" gradientUnits="userSpaceOnUse">
<stop stop-color="#6CBCFC"/>
<stop offset="1" stop-color="#458DFC"/>
</linearGradient>
<clipPath id="clip0_65_1094">
<rect width="80" height="71.1549" fill="white"/>
</clipPath>
</defs>
</svg>
