<svg width="62" height="85" viewBox="0 0 62 85" fill="none" xmlns="http://www.w3.org/2000/svg">
<g clip-path="url(#clip0_65_1036)">
<path d="M61.8574 26.4808L61.6657 66.2817L61.6338 73.9799C61.6018 80.0969 55.7882 85.0321 48.633 85.0002L12.889 84.8405C5.74972 84.7925 -0.0319332 79.8095 9.65492e-06 73.6764L0.22361 26.1774C0.239581 21.2262 4.07272 17.0417 9.31135 15.6522L9.32733 13.0968V11.7871L52.8814 11.9947L52.8654 15.8598C58.0881 17.3132 61.8733 21.5137 61.8574 26.4808Z" fill="url(#paint0_linear_65_1036)"/>
<path d="M56.1236 1.77283V2.1242L56.0917 6.27678L56.0598 10.3495V10.8446C56.0598 11.6112 55.4209 12.2341 54.6543 12.2341H54.3189L52.2106 12.2182L49.8948 12.2022L47.7866 12.1862L45.4707 12.1702L43.3305 12.1383L41.0147 12.1223L38.9064 12.1064L36.5746 12.0904L34.4504 12.0744L32.1345 12.0584L30.0263 12.0265L27.7105 12.0105L25.6022 11.9945L23.2704 11.9786L21.1462 11.9626L18.8463 11.9466L16.7381 11.9307L14.4222 11.9147L12.298 11.8987L9.98216 11.8828L7.85796 11.8668H7.52256C6.75593 11.8668 6.13304 11.2279 6.13304 10.4613V10.4453V10.0939L6.19693 1.88463V1.38952C6.19693 0.622886 6.83578 0 7.61839 0H7.95379L12.3938 0.0319429L16.8339 0.0638858L18.9581 0.0798572L21.274 0.0958286L23.3822 0.1118L27.8063 0.159714L30.1221 0.175686L32.2304 0.191657L34.5462 0.207629L36.6545 0.2236L38.9703 0.239572L41.0786 0.255543L43.3944 0.271514L45.5026 0.287486L47.8504 0.319429L49.9587 0.3354L52.2745 0.351372L54.3987 0.367343H54.7341C55.5167 0.383315 56.1236 1.0062 56.1236 1.77283Z" fill="url(#paint1_linear_65_1036)"/>
<path d="M56.1236 2.14031L56.0917 6.27691L56.0598 10.3496L54.1592 10.3337L51.6357 10.3177L49.3198 10.3017H46.7804L44.4645 10.2857L41.941 10.2698L39.6251 10.2538H37.0857L34.7698 10.2378L32.2304 10.2219L29.9305 10.2059H27.391L25.0752 10.1899L22.5357 10.1739L20.2198 10.158H17.6964L15.3805 10.142L12.841 10.126L10.5252 10.1101H8.0017L6.13304 10.0941L6.19693 1.88477L10.637 1.90074L15.4763 1.93268L17.7922 1.94865L20.3317 1.96462H22.6475L27.4869 1.99657L30.0263 2.01254H32.3422L34.8816 2.02851L37.1815 2.04448L39.721 2.06045H42.0368L44.5763 2.07642L46.8762 2.09239L49.4156 2.10837H51.7315L54.271 2.12434L56.1236 2.14031Z" fill="url(#paint2_linear_65_1036)"/>
<path d="M61.8105 34.8842L0.176758 34.5928L0.0475233 61.9199L61.6813 62.2114L61.8105 34.8842Z" fill="#F7F9FC"/>
<path d="M61.8215 34.8842L0.187668 34.5928L0.164412 39.512L61.7982 39.8034L61.8215 34.8842Z" fill="#FBFCF7"/>
<path d="M24.2127 45.5805L20.2358 45.5645L20.2518 41.5716L14.7736 41.5557L14.7576 45.5326L10.7807 45.5166L10.7488 50.9788L14.7257 50.9948L14.7097 54.9876L20.1879 55.0036L20.2039 51.0267L24.1808 51.0427L24.2127 45.5805Z" fill="url(#paint3_linear_65_1036)"/>
<path d="M51.2364 46.9059L31.5276 46.8101C31.0006 46.8101 30.5693 46.3788 30.5693 45.8518V45.4046C30.5693 44.8775 31.0006 44.4463 31.5276 44.4463L51.2364 44.5421C51.7634 44.5421 52.1947 44.9733 52.1947 45.5004V45.9476C52.1947 46.4747 51.7634 46.9059 51.2364 46.9059Z" fill="url(#paint4_linear_65_1036)"/>
<path opacity="0.5" d="M51.2204 52.7677L31.5116 52.6719C30.9846 52.6719 30.5534 52.2406 30.5534 51.7136V51.2664C30.5534 50.7393 30.9846 50.3081 31.5116 50.3081L51.2204 50.4039C51.7475 50.4039 52.1787 50.8352 52.1787 51.3622V51.8094C52.1787 52.3365 51.7475 52.7677 51.2204 52.7677Z" fill="url(#paint5_linear_65_1036)"/>
<path opacity="0.08" d="M6.13304 1.77267V2.12405L6.16498 6.27662L6.19693 10.3334V10.8285C6.19693 11.5951 6.83578 12.218 7.60241 12.218H7.93781L10.062 12.202L12.3779 12.1861L14.4861 12.1701L16.802 12.1541L18.9102 12.1381L21.226 12.1222L23.3343 12.1062L25.6501 12.0902L27.7743 12.0743L30.0902 12.0583L32.1984 12.0423L34.5143 12.0263L36.6225 12.0104L38.9384 11.9944L41.0626 11.9784L43.3784 11.9625L45.4867 11.9465L47.8025 11.9305L49.9108 11.9145L52.2266 11.8986L54.3508 11.8826H54.6862C55.4528 11.8826 56.0757 11.2437 56.0757 10.4771V10.4611V10.1098C31.3679 11.1799 7.52256 0.367188 7.52256 0.367188C6.75593 0.383159 6.13304 1.00605 6.13304 1.77267Z" fill="#1A6FB5"/>
</g>
<defs>
<linearGradient id="paint0_linear_65_1036" x1="9.32815e-06" y1="11.3335" x2="57.1389" y2="90.1946" gradientUnits="userSpaceOnUse">
<stop stop-color="#6CBCFC"/>
<stop offset="1" stop-color="#458DFC"/>
</linearGradient>
<linearGradient id="paint1_linear_65_1036" x1="-629.93" y1="-39.931" x2="-27.6041" y2="2.02206" gradientUnits="userSpaceOnUse">
<stop stop-color="#B0F4FF"/>
<stop offset="0.0525488" stop-color="#A9F2FF"/>
<stop offset="0.2879" stop-color="#8DE8FE"/>
<stop offset="0.5247" stop-color="#79E1FD"/>
<stop offset="0.7618" stop-color="#6DDDFC"/>
<stop offset="1" stop-color="#69DCFC"/>
</linearGradient>
<linearGradient id="paint2_linear_65_1036" x1="6.13994" y1="6.11325" x2="56.1258" y2="6.11325" gradientUnits="userSpaceOnUse">
<stop stop-color="#B0F4FF"/>
<stop offset="0.0525488" stop-color="#A9F2FF"/>
<stop offset="0.2879" stop-color="#8DE8FE"/>
<stop offset="0.5247" stop-color="#79E1FD"/>
<stop offset="0.7618" stop-color="#6DDDFC"/>
<stop offset="1" stop-color="#69DCFC"/>
</linearGradient>
<linearGradient id="paint3_linear_65_1036" x1="21.9779" y1="43.0955" x2="12.5975" y2="53.9126" gradientUnits="userSpaceOnUse">
<stop stop-color="#6CBCFC"/>
<stop offset="1" stop-color="#458DFC"/>
</linearGradient>
<linearGradient id="paint4_linear_65_1036" x1="52.3847" y1="45.6709" x2="28.8866" y2="45.6709" gradientUnits="userSpaceOnUse">
<stop stop-color="#6CBCFC"/>
<stop offset="1" stop-color="#458DFC"/>
</linearGradient>
<linearGradient id="paint5_linear_65_1036" x1="30.5519" y1="51.5324" x2="52.179" y2="51.5324" gradientUnits="userSpaceOnUse">
<stop stop-color="#6CBCFC"/>
<stop offset="1" stop-color="#458DFC"/>
</linearGradient>
<clipPath id="clip0_65_1036">
<rect width="61.8574" height="85" fill="white"/>
</clipPath>
</defs>
</svg>
